HIERARCHY
ROOT joint_Root
{
	OFFSET 0.0 0.0 0.0
	CHANNELS 6 Xposition Yposition Zposition Zrotation Xrotation Yrotation 
	JOINT Hips
	{
		OFFSET -0.726466 93.3139 -2.00062
		CHANNELS 6 Xposition Yposition Zposition Zrotation Xrotation Yrotation 
		JOINT Spine
		{
			OFFSET 15.7357 0.0 0.0
			CHANNELS 6 Xposition Yposition Zposition Zrotation Xrotation Yrotation 
			JOINT Chest
			{
				OFFSET 8.98455 -0.406207 0.0
				CHANNELS 6 Xposition Yposition Zposition Zrotation Xrotation Yrotation 
				JOINT Neck
				{
					OFFSET 16.3773 0.0 0.0
					CHANNELS 6 Xposition Yposition Zposition Zrotation Xrotation Yrotation 
					JOINT Head
					{
						OFFSET 6.45672 0.0 0.0
						CHANNELS 6 Xposition Yposition Zposition Zrotation Xrotation Yrotation 
						End Site
						{
							OFFSET 0.0 0.0 0.0
						}
					}
				}
				JOINT Shoulder_L
				{
					OFFSET 12.9942 -0.242716 4.98039
					CHANNELS 6 Xposition Yposition Zposition Zrotation Xrotation Yrotation 
					JOINT UpperArm_L
					{
						OFFSET 5.34809 0.0 0.0
						CHANNELS 6 Xposition Yposition Zposition Zrotation Xrotation Yrotation 
						JOINT LowerArm_L
						{
							OFFSET 24.3286 1.87007e-05 0.0
							CHANNELS 6 Xposition Yposition Zposition Zrotation Xrotation Yrotation 
							JOINT Hand_L
							{
								OFFSET 22.2916 0.0 0.0
								CHANNELS 6 Xposition Yposition Zposition Zrotation Xrotation Yrotation 
								End Site
								{
									OFFSET 0.0 0.0 0.0
								}
							}
						}
					}
				}
				JOINT Shoulder_R
				{
					OFFSET 12.9945 -0.242716 -4.98039
					CHANNELS 6 Xposition Yposition Zposition Zrotation Xrotation Yrotation 
					JOINT UpperArm_R
					{
						OFFSET -5.34813 0.0 0.0
						CHANNELS 6 Xposition Yposition Zposition Zrotation Xrotation Yrotation 
						JOINT LowerArm_R
						{
							OFFSET -24.3289 0.000322201 0.0
							CHANNELS 6 Xposition Yposition Zposition Zrotation Xrotation Yrotation 
							JOINT Hand_R
							{
								OFFSET -22.2915 -0.000108084 0.0
								CHANNELS 6 Xposition Yposition Zposition Zrotation Xrotation Yrotation 
								End Site
								{
									OFFSET 0.0 0.0 0.0
								}
							}
						}
					}
				}
			}
		}
		JOINT UpperLeg_L
		{
			OFFSET -2.19248 -6.46944 0.0
			CHANNELS 6 Xposition Yposition Zposition Zrotation Xrotation Yrotation 
			JOINT LowerLeg_L
			{
				OFFSET 39.0811 0.0 -1.23785e-05
				CHANNELS 6 Xposition Yposition Zposition Zrotation Xrotation Yrotation 
				JOINT Foot_L
				{
					OFFSET 40.9854 0.0 -1.26872e-05
					CHANNELS 6 Xposition Yposition Zposition Zrotation Xrotation Yrotation 
					JOINT Toes_L
					{
						OFFSET 11.7543 0.0 0.0
						CHANNELS 6 Xposition Yposition Zposition Zrotation Xrotation Yrotation 
						End Site
						{
							OFFSET 0.0 0.0 0.0
						}
					}
				}
			}
		}
		JOINT UpperLeg_R
		{
			OFFSET -2.19251 6.46944 0.0
			CHANNELS 6 Xposition Yposition Zposition Zrotation Xrotation Yrotation 
			JOINT LowerLeg_R
			{
				OFFSET -39.0811 -0.00228153 -0.0401928
				CHANNELS 6 Xposition Yposition Zposition Zrotation Xrotation Yrotation 
				JOINT Foot_R
				{
					OFFSET -40.9854 0.0 0.0
					CHANNELS 6 Xposition Yposition Zposition Zrotation Xrotation Yrotation 
					JOINT Toes_R
					{
						OFFSET -11.7543 0.0 0.0
						CHANNELS 6 Xposition Yposition Zposition Zrotation Xrotation Yrotation 
						End Site
						{
							OFFSET 0.0 0.0 0.0
						}
					}
				}
			}
		}
	}
}
MOTION
Frames:	6
Frame Time:	0.0333333
0.000000 0.000000 0.000000 0.000000 0.000000 -0.000000 -0.864658 92.259700 -0.831132 87.544400 -1.490930 2.287510 15.735700 0.000005 -0.000001 88.976600 88.025300 -88.511500 8.984550 -0.406207 -0.000000 -3.816580 -0.117479 0.926640 16.377300 -0.000001 -0.000001 -2.576460 -1.565320 -0.243004 6.456720 -0.000001 -0.000000 -2.568210 -0.353662 -4.758330 12.994200 -0.242716 4.980390 -83.714600 -11.645800 -61.381200 5.348090 -0.000007 -0.000001 -54.293700 -47.961200 -119.103000 24.328600 0.000019 0.000005 -0.378221 -0.336192 -48.369900 22.291600 -0.000001 0.000005 19.548500 5.589570 -10.737600 12.994500 -0.242716 -4.980390 94.189500 -8.685940 -64.124400 -5.348130 -0.000001 -0.000004 -59.045100 -44.973800 -132.098000 -24.328900 0.000322 -0.000009 -3.768520 -3.959900 -43.636700 -22.291500 -0.000108 -0.000004 23.044400 5.535690 -8.048440 -2.192480 -6.469440 -0.000000 -169.322000 -14.348800 -1.859290 39.081100 -0.000007 -0.000012 -0.156904 0.438059 19.706700 40.985400 -0.000006 -0.000013 -6.031400 2.407570 -63.904700 11.754300 -0.000000 0.000003 -0.000033 -0.000393 -16.592900 -2.192510 6.469440 -0.000001 175.418000 19.430500 179.162000 -39.081100 -0.002282 -0.040193 0.038108 -0.104995 18.329300 -40.985400 0.000008 0.000006 -0.410163 1.823640 -63.273800 -11.754300 -0.000006 -0.000006 -0.005764 -0.068679 -19.368100
0.000000 0.000000 0.000000 0.000000 0.000000 -0.000000 -0.879485 92.245100 -0.808605 87.502200 -1.522620 2.263690 15.735700 0.000005 -0.000001 88.282600 88.034000 -87.802000 8.984550 -0.406207 -0.000000 -3.834870 -0.166394 0.956030 16.377300 -0.000001 -0.000001 -2.643920 -1.545050 -0.264329 6.456720 -0.000001 -0.000000 -2.685970 -0.327694 -4.524860 12.994200 -0.242716 4.980390 -83.681800 -11.713600 -61.392600 5.348090 -0.000007 -0.000001 -54.786600 -48.120400 -118.988000 24.328600 0.000019 0.000005 -0.438661 -0.394209 -48.058300 22.291600 -0.000001 0.000005 19.564200 5.589800 -10.750500 12.994500 -0.242716 -4.980390 94.209900 -8.686480 -64.015700 -5.348130 -0.000001 -0.000004 -59.090600 -44.952600 -131.992000 -24.328900 0.000322 -0.000009 -3.661150 -3.935870 -42.981400 -22.291500 -0.000108 -0.000004 22.848600 5.538630 -8.180600 -2.192480 -6.469440 -0.000000 -169.287000 -14.398200 -1.944840 39.081100 -0.000007 -0.000012 -0.157152 0.434903 19.867400 40.985400 -0.000006 -0.000013 -6.031290 2.376090 -63.994700 11.754300 -0.000000 0.000003 -0.000044 -0.000501 -16.597100 -2.192510 6.469440 -0.000001 175.465000 19.408400 179.132000 -39.081100 -0.002282 -0.040193 0.038208 -0.105093 18.362700 -40.985400 0.000008 0.000006 -0.434776 1.861520 -63.326900 -11.754300 -0.000006 -0.000006 -0.005773 -0.068763 -19.371500
0.000000 0.000000 0.000000 0.000000 0.000000 -0.000000 -0.876144 92.250900 -0.797386 87.522900 -1.596280 2.227130 15.735700 0.000005 -0.000001 87.800300 88.050800 -87.318500 8.984550 -0.406207 -0.000000 -3.869500 -0.198425 0.957258 16.377300 -0.000001 -0.000001 -2.751650 -1.592810 -0.202841 6.456720 -0.000001 -0.000000 -2.748190 -0.360142 -4.487300 12.994200 -0.242716 4.980390 -83.689100 -11.682300 -61.357200 5.348090 -0.000007 -0.000001 -54.928200 -48.674900 -118.013000 24.328600 0.000019 0.000005 -0.642322 -0.591690 -47.353700 22.291600 -0.000001 0.000005 19.706900 5.589540 -10.736100 12.994500 -0.242716 -4.980390 94.204400 -8.641080 -63.928000 -5.348130 -0.000001 -0.000004 -59.261900 -45.315900 -131.268000 -24.328900 0.000322 -0.000009 -3.551570 -3.960140 -41.936400 -22.291500 -0.000108 -0.000004 22.730700 5.534650 -8.001580 -2.192480 -6.469440 -0.000000 -169.314000 -14.430200 -1.911020 39.081100 -0.000007 -0.000012 -0.156290 0.434512 19.783400 40.985400 -0.000006 -0.000013 -6.040310 2.342410 -63.974200 11.754300 -0.000000 0.000003 -0.000049 -0.000552 -16.599000 -2.192510 6.469440 -0.000001 175.458000 19.333200 179.098000 -39.081100 -0.002282 -0.040193 0.038122 -0.104869 18.356700 -40.985400 0.000008 0.000006 -0.391321 1.886920 -63.316900 -11.754300 -0.000006 -0.000006 -0.005654 -0.067659 -19.326500
0.000000 0.000000 0.000000 0.000000 0.000000 -0.000000 -0.862456 92.252600 -0.772186 87.555700 -1.712410 2.177590 15.735700 0.000005 -0.000001 87.810700 88.053900 -87.338300 8.984550 -0.406207 -0.000000 -3.875760 -0.196555 0.938541 16.377300 -0.000001 -0.000001 -2.824640 -1.662540 -0.123508 6.456720 -0.000001 -0.000000 -2.861420 -0.392370 -4.472070 12.994200 -0.242716 4.980390 -83.755100 -11.570100 -61.383500 5.348090 -0.000007 -0.000001 -54.966400 -49.612700 -116.432000 24.328600 0.000019 0.000005 -0.704632 -0.671271 -46.392300 22.291600 -0.000001 0.000005 19.720100 5.586510 -10.566700 12.994500 -0.242716 -4.980390 94.155400 -8.506290 -63.841000 -5.348130 -0.000001 -0.000004 -59.595400 -45.994100 -129.989000 -24.328900 0.000322 -0.000009 -3.368900 -3.936610 -40.601500 -22.291500 -0.000108 -0.000004 22.769300 5.527710 -7.695360 -2.192480 -6.469440 -0.000000 -169.362000 -14.479600 -1.881630 39.081100 -0.000007 -0.000012 -0.154969 0.432401 19.717400 40.985400 -0.000006 -0.000013 -6.054370 2.261380 -63.977000 11.754300 -0.000000 0.000003 -0.000032 -0.000384 -16.592600 -2.192510 6.469440 -0.000001 175.425000 19.270000 179.050000 -39.081100 -0.002282 -0.040193 0.037981 -0.104509 18.346200 -40.985400 0.000008 0.000006 -0.461331 1.951840 -63.305500 -11.754300 -0.000006 -0.000006 -0.005922 -0.070125 -19.427000
0.000000 0.000000 0.000000 0.000000 0.000000 -0.000000 -0.860842 92.260800 -0.764295 87.509200 -1.761160 2.064940 15.735700 0.000005 -0.000001 86.948000 88.084700 -86.450700 8.984550 -0.406207 -0.000000 -3.939610 -0.254591 0.986304 16.377300 -0.000001 -0.000001 -2.897550 -1.693520 -0.122036 6.456720 -0.000001 -0.000000 -2.908540 -0.456483 -4.425200 12.994200 -0.242716 4.980390 -83.815100 -11.430700 -61.329900 5.348090 -0.000007 -0.000001 -55.035200 -50.590900 -114.273000 24.328600 0.000019 0.000005 -0.678413 -0.671666 -45.290100 22.291600 -0.000001 0.000005 19.839100 5.584430 -10.453000 12.994500 -0.242716 -4.980390 94.081000 -8.305990 -63.715300 -5.348130 -0.000001 -0.000004 -59.998900 -46.724000 -128.224000 -24.328900 0.000322 -0.000009 -3.300600 -4.089380 -38.952900 -22.291500 -0.000108 -0.000004 22.765400 5.527530 -7.686840 -2.192480 -6.469440 -0.000000 -169.345000 -14.498000 -1.957920 39.081100 -0.000007 -0.000012 -0.155413 0.434490 19.681800 40.985400 -0.000006 -0.000013 -6.061670 2.222760 -63.976000 11.754300 -0.000000 0.000003 -0.000038 -0.000441 -16.594700 -2.192510 6.469440 -0.000001 175.520000 19.263200 178.949000 -39.081100 -0.002282 -0.040193 0.037784 -0.104325 18.279100 -40.985400 0.000008 0.000006 -0.420062 1.936410 -63.243800 -11.754300 -0.000006 -0.000006 -0.005879 -0.069737 -19.411200
0.000000 0.000000 0.000000 0.000000 0.000000 -0.000000 -0.857952 92.257200 -0.747667 87.478200 -1.836180 1.968840 15.735700 0.000005 -0.000001 86.325200 88.110100 -85.822000 8.984550 -0.406207 -0.000000 -3.992450 -0.293715 0.996629 16.377300 -0.000001 -0.000001 -2.896070 -1.689160 -0.097992 6.456720 -0.000001 -0.000000 -2.904250 -0.421111 -4.319330 12.994200 -0.242716 4.980390 -83.865800 -11.298700 -61.253300 5.348090 -0.000007 -0.000001 -55.073000 -51.585400 -111.640000 24.328600 0.000019 0.000005 -1.132630 -1.173290 -43.998000 22.291600 -0.000001 0.000005 20.053500 5.582270 -10.334100 12.994500 -0.242716 -4.980390 93.975700 -8.060840 -63.635100 -5.348130 -0.000001 -0.000004 -60.050000 -47.764400 -125.637000 -24.328900 0.000322 -0.000009 -3.031940 -4.011790 -37.118400 -22.291500 -0.000108 -0.000004 22.916500 5.517150 -7.241520 -2.192480 -6.469440 -0.000000 -169.327000 -14.590600 -2.055560 39.081100 -0.000007 -0.000012 -0.157408 0.438916 19.729400 40.985400 -0.000006 -0.000013 -6.063500 2.226910 -64.007200 11.754300 -0.000000 0.000003 -0.000040 -0.000465 -16.595700 -2.192510 6.469440 -0.000001 175.586000 19.176600 178.868000 -39.081100 -0.002282 -0.040193 0.037575 -0.103881 18.247900 -40.985400 0.000008 0.000006 -0.456841 1.922770 -63.244600 -11.754300 -0.000006 -0.000006 -0.005798 -0.068987 -19.380600
